#!OML:ASF E:\Style4\Style4.ASF
:FULLY-SPECIFIED
:DEGREES
2563
root 0.62754 16.8189 -1.31478 5.97534 -20.5518 4.8933
lowerback 17.4615 3.3822 3.39678
upperback 11.9194 4.6659 0.548984
thorax 3.27134 2.45919 -1.97474
lowerneck 0.791459 -1.76021 -2.72428
upperneck -13.1061 -3.4788 -7.52614
head -4.60905 -1.25593 -1.93516
rclavicle 1.59028e-015 -6.36111e-015
rhumerus 32.14 37.5 -85.0848
rradius 113.28
rwrist -8.46918
rhand -49.5161 43.9839
rfingers 7.12502
rthumb -22.1246 15.2298
lclavicle 1.59028e-015 -6.36111e-015
lhumerus 51.323 -18.5366 47.9878
lradius 120.071
lwrist 46.1834
lhand -3.70827 36.7581
lfingers 7.12502
lthumb 22.0341 65.5229
rfemur -40.8292 4.23844 12.3828
rtibia 55.1912
rfoot -20.5246 -9.81606
rtoes -16.8496
lfemur -33.5469 14.045 -27.1789
ltibia 53.6335
lfoot -28.6429 16.0339
ltoes -14.0698
2564
root 0.634946 16.8188 -1.31082 5.9034 -20.7752 4.87649
lowerback 17.4372 3.25085 3.19569
upperback 11.9558 4.4638 0.630025
thorax 3.28549 2.34152 -1.74875
lowerneck 0.864652 -1.54003 -2.71187
upperneck -13.097 -3.20577 -7.72652
head -4.61801 -1.11094 -2.01878
rclavicle -2.70347e-014 1.11319e-014
rhumerus 31.4177 37.1871 -85.7526
rradius 113.468
rwrist -8.95455
rhand -49.3544 44.2554
rfingers 7.12502
rthumb -21.9693 15.4829
lclavicle -2.70347e-014 1.11319e-014
lhumerus 51.3497 -18.7945 47.2067
lradius 119.771
lwrist 46.4802
lhand -3.74272 36.838
lfingers 7.12502
lthumb 22.001 65.6067
rfemur -40.7692 4.38557 12.3694
rtibia 55.1401
rfoot -20.5608 -9.51561
rtoes -15.6649
lfemur -33.4487 14.2029 -27.1768
ltibia 53.652
lfoot -28.7544 16.0152
ltoes -13.7631
2565
root 0.641766 16.818 -1.30644 5.81441 -21.0575 4.78133
lowerback 17.4433 3.16761 3.02112
upperback 12.0016 4.32745 0.729782
thorax 3.30099 2.25731 -1.52776
lowerneck 0.89397 -1.35245 -2.71522
upperneck -13.0396 -2.96154 -7.84738
head -4.59794 -0.98589 -2.06985
rclavicle 4.37326e-014 -1.11319e-014
rhumerus 30.805 36.6563 -86.2215
rradius 113.498
rwrist -9.12189
rhand -49.5525 44.1654
rfingers 7.12502
rthumb -22.1596 15.4155
lclavicle 4.37326e-014 -1.11319e-014
lhumerus 51.4399 -19.1294 46.4764
lradius 119.488
lwrist 47.1599
lhand -4.10369 37.152
lfingers 7.12502
lthumb 21.6544 65.961
rfemur -40.6825 4.57851 12.4727
rtibia 55.0969
rfoot -20.5242 -9.35483
rtoes -15.0913
lfemur -33.3185 14.5203 -27.093
ltibia 53.6695
lfoot -28.7612 16.0768
ltoes -14.1499
2566
root 0.649378 16.8168 -1.30025 5.74368 -21.3511 4.69666
lowerback 17.1574 3.07086 3.18916
upperback 12.2162 4.20509 0.605989
thorax 3.70422 2.21767 -1.70853
lowerneck 0.977815 -1.24484 -2.77014
upperneck -13.1827 -2.8038 -7.59802
head -4.65394 -0.909817 -1.982
rclavicle 2.62396e-014 0
rhumerus 30.4863 35.9502 -86.7506
rradius 113.448
rwrist -9.05191
rhand -49.9657 43.9654
rfingers 7.12502
rthumb -22.5562 15.2631
lclavicle 2.62396e-014 0
lhumerus 51.8919 -19.4461 45.5224
lradius 119.059
lwrist 47.6974
lhand -4.14522 37.0609
lfingers 7.12502
lthumb 21.6145 65.8746
rfemur -40.6021 4.77485 12.5415
rtibia 55.0275
rfoot -20.4677 -9.32858
rtoes -15.6448
lfemur -33.1909 14.8259 -27.0179
ltibia 53.6683
lfoot -28.8591 16.0008
ltoes -14.0602
2567
root 0.655745 16.817 -1.29327 5.64711 -21.6304 4.61487
lowerback 17.1458 3.00667 3.08824
upperback 12.2493 4.10386 0.657793
thorax 3.72814 2.15733 -1.5834
lowerneck 1.0965 -1.11689 -2.92142
upperneck -13.1119 -2.63351 -7.55889
head -4.64248 -0.819923 -1.94726
rclavicle -5.08889e-014 3.02153e-014
rhumerus 29.7707 35.4646 -87.3099
rradius 113.501
rwrist -9.27067
rhand -50.0697 43.9125
rfingers 7.12502
rthumb -22.656 15.2223
lclavicle -5.08889e-014 3.02153e-014
lhumerus 51.9727 -19.9661 44.9378
lradius 118.695
lwrist 47.9351
lhand -4.39906 36.954
lfingers 7.12502
lthumb 21.3707 65.7955
rfemur -40.4611 4.98908 12.5843
rtibia 54.9193
rfoot -20.259 -9.43166
rtoes -17.2083
lfemur -33.0043 15.082 -26.9231
ltibia 53.6469
lfoot -29.0524 15.8385
ltoes -13.4213
2568
root 0.662075 16.8214 -1.28646 5.55842 -21.8921 4.6227
lowerback 17.1811 2.95315 2.83808
upperback 12.218 4.00162 0.745271
thorax 3.642 2.08386 -1.34319
lowerneck 1.13122 -0.965836 -3.06631
upperneck -12.8975 -2.42735 -7.6253
head -4.56346 -0.714715 -1.94934
rclavicle 1.82882e-014 -5.56597e-014
rhumerus 29.0206 34.9389 -87.7912
rradius 113.563
rwrist -9.64237
rhand -49.9898 43.938
rfingers 7.12502
rthumb -22.5794 15.2385
lclavicle 1.82882e-014 -5.56597e-014
lhumerus 51.9734 -20.4809 44.5093
lradius 118.329
lwrist 47.9227
lhand -4.03732 36.9165
lfingers 7.12502
lthumb 21.7181 65.7182
rfemur -40.332 5.12764 12.5483
rtibia 54.7901
rfoot -19.8046 -9.86434
rtoes -20.8242
lfemur -32.8383 15.2993 -26.9423
ltibia 53.5994
lfoot -29.1722 15.7723
ltoes -13.0843
2569
root 0.670498 16.8278 -1.27827 5.47831 -22.1487 4.65645
lowerback 17.0446 2.82614 2.82728
upperback 12.2776 3.82799 0.649376
thorax 3.7767 2.0013 -1.40609
lowerneck 1.15213 -0.786079 -3.17458
upperneck -12.757 -2.16546 -7.53152
head -4.50407 -0.588616 -1.90573
rclavicle -9.54166e-015 -4.77083e-015
rhumerus 28.4827 34.39 -88.3869
rradius 113.57
rwrist -9.75147
rhand -49.9821 43.854
rfingers 7.12502
rthumb -22.5719 15.1535
lclavicle -9.54166e-015 -4.77083e-015
lhumerus 52.2312 -20.8507 43.8707
lradius 117.835
lwrist 47.7094
lhand -3.06231 36.7273
lfingers 7.12502
lthumb 22.6542 65.4177
rfemur -40.2165 5.22013 12.49
rtibia 54.6555
rfoot -19.5731 -9.98203
rtoes -22.4748
lfemur -32.6918 15.4879 -27.0196
ltibia 53.5218
lfoot -29.0951 16.0063
ltoes -13.6833
2570
root 0.677545 16.8323 -1.27145 5.44795 -22.4097 4.6177
lowerback 16.9612 2.68065 2.68611
upperback 12.286 3.616 0.668781
thorax 3.80673 1.88414 -1.276
lowerneck 1.21092 -0.555446 -3.40785
upperneck -12.6363 -1.85606 -7.52379
head -4.45989 -0.427671 -1.87221
rclavicle 1.82882e-014 -1.59028e-014
rhumerus 27.8609 34.0626 -88.9107
rradius 113.589
rwrist -9.69703
rhand -50.172 43.9225
rfingers 7.12502
rthumb -22.7541 15.2443
lclavicle 1.82882e-014 -1.59028e-014
lhumerus 52.3166 -21.3356 43.408
lradius 117.541
lwrist 47.7812
lhand -3.27042 37.1696
lfingers 7.12502
lthumb 22.4544 65.8843
rfemur -40.1529 5.38271 12.4992
rtibia 54.5166
rfoot -19.5726 -9.84703
rtoes -22.0665
lfemur -32.5813 15.6631 -26.9975
ltibia 53.4287
lfoot -29.1451 16.0149
ltoes -13.3846
2571
root 0.685675 16.8369 -1.26147 5.37025 -22.6056 4.6011
lowerback 16.8939 2.52807 2.6107
upperback 12.3247 3.40302 0.657332
thorax 3.87012 1.77273 -1.21478
lowerneck 1.20718 -0.354467 -3.5335
upperneck -12.4953 -1.57983 -7.55015
head -4.39932 -0.288953 -1.86755
rclavicle -3.65764e-014 3.97569e-014
rhumerus 27.2467 33.6345 -89.4435
rradius 113.636
rwrist -9.81639
rhand -50.2739 44.2763
rfingers 7.12502
rthumb -22.852 15.6102
lclavicle -3.65764e-014 3.97569e-014
lhumerus 52.5322 -21.9867 42.8728
lradius 117.408
lwrist 48.0962
lhand -4.46634 37.9621
lfingers 7.12502
lthumb 21.3061 66.8109
rfemur -40.0106 5.42499 12.5047
rtibia 54.3733
rfoot -19.6116 -9.59945
rtoes -20.9556
lfemur -32.4013 15.7708 -26.9702
ltibia 53.3389
lfoot -29.3493 15.8789
ltoes -12.5421
2572
root 0.693919 16.8472 -1.24777 5.26284 -22.8324 4.54595
lowerback 16.8387 2.40056 2.553
upperback 12.3806 3.22401 0.654375
thorax 3.94925 1.6791 -1.15907
lowerneck 1.13901 -0.160723 -3.56117
upperneck -12.2718 -1.29981 -7.6014
head -4.2973 -0.156324 -1.88667
rclavicle -3.4191e-014 -4.77083e-015
rhumerus 26.5698 33.1731 -89.8881
rradius 113.772
rwrist -10.1346
rhand -50.2966 44.0899
rfingers 7.12502
rthumb -22.8738 15.4265
lclavicle -3.4191e-014 -4.77083e-015
lhumerus 52.7576 -22.6236 42.4029
lradius 117.183
lwrist 48.118
lhand -4.99361 38.0597
lfingers 7.12502
lthumb 20.7995 66.9648
rfemur -39.7874 5.46394 12.5566
rtibia 54.2119
rfoot -19.6518 -9.32309
rtoes -20.1665
lfemur -32.1761 15.9391 -26.9264
ltibia 53.27
lfoot -29.3064 16.1011
ltoes -13.1045
2573
root 0.69645 16.8519 -1.23885 5.24239 -23.1472 4.40604
lowerback 16.7807 2.31343 2.30444
upperback 12.3533 3.07597 0.754886
thorax 3.92039 1.58223 -0.894863
lowerneck 1.3312 0.0756199 -3.54621
upperneck -12.199 -1.00494 -7.78847
head -4.30412 -0.00108827 -1.96582
rclavicle 8.74653e-015 -1.59028e-015
rhumerus 25.9006 32.8885 -90.2073
rradius 113.935
rwrist -10.338
rhand -50.3538 43.5908
rfingers 7.12502
rthumb -22.9286 14.9342
lclavicle 8.74653e-015 -1.59028e-015
lhumerus 52.7276 -23.2718 42.1987
lradius 116.879
lwrist 48.0509
lhand -5.06054 37.7588
lfingers 7.12502
lthumb 20.7352 66.671
rfemur -39.6634 5.66625 12.6822
rtibia 54.0523
rfoot -19.6298 -9.08039
rtoes -19.7476
lfemur -32.0484 16.2177 -26.8028
ltibia 53.2324
lfoot -29.2284 16.2783
ltoes -13.7912
2574
root 0.697525 16.8548 -1.23094 5.19784 -23.4934 4.2905
lowerback 16.7362 2.22276 2.02758
upperback 12.3187 2.92093 0.819208
thorax 3.879 1.48166 -0.652818
lowerneck 1.62683 0.325188 -3.55685
upperneck -12.2085 -0.702824 -7.937
head -4.3601 0.162658 -2.03093
rclavicle 4.13472e-014 -2.70347e-014
rhumerus 25.2815 32.5692 -90.633
rradius 114.074
rwrist -10.4258
rhand -50.3976 43.6139
rfingers 7.12502
rthumb -22.9707 14.9625
lclavicle 4.13472e-014 -2.70347e-014
lhumerus 52.6984 -23.8867 42.1067
lradius 116.526
lwrist 48.0575
lhand -5.02774 37.6463
lfingers 7.12502
lthumb 20.7668 66.5551
rfemur -39.5498 5.85092 12.8097
rtibia 53.9064
rfoot -19.5687 -8.91926
rtoes -19.6575
lfemur -31.8734 16.4823 -26.668
ltibia 53.174
lfoot -29.3705 16.1782
ltoes -13.2453
2575
root 0.699416 16.8599 -1.22185 5.11951 -23.7562 4.26782
lowerback 16.6564 2.11155 1.87034
upperback 12.3051 2.75459 0.777592
thorax 3.89383 1.38893 -0.585401
lowerneck 1.9587 0.530172 -3.61753
upperneck -12.2582 -0.454898 -7.95118
head -4.43749 0.298212 -2.04054
rclavicle 2.70347e-014 -1.74931e-014
rhumerus 24.6747 31.9839 -91.2417
rradius 114.11
rwrist -10.3063
rhand -50.3336 44.3638
rfingers 7.12502
rthumb -22.9092 15.7048
lclavicle 2.70347e-014 -1.74931e-014
lhumerus 52.8359 -24.4816 42.0347
lradius 116.154
lwrist 47.722
lhand -4.55111 37.605
lfingers 7.12502
lthumb 21.2247 66.463
rfemur -39.4251 5.92685 12.8534
rtibia 53.7897
rfoot -19.5685 -8.82206
rtoes -19.9384
lfemur -31.6816 16.658 -26.6206
ltibia 53.0715
lfoot -29.3863 16.1918
ltoes -13.0532
2576
root 0.699506 16.8668 -1.20918 5.01685 -23.9907 4.32508
lowerback 16.5034 2.02766 1.74263
upperback 12.3491 2.62587 0.663541
thorax 4.01744 1.32121 -0.611331
lowerneck 2.04564 0.69911 -3.61542
upperneck -12.1833 -0.21578 -7.88606
head -4.41969 0.412861 -2.02777
rclavicle -4.77083e-015 -2.38542e-015
rhumerus 24.2295 31.2277 -91.7203
rradius 114.184
rwrist -10.3066
rhand -50.1206 44.8162
rfingers 7.12502
rthumb -22.7048 16.132
lclavicle -4.77083e-015 -2.38542e-015
lhumerus 53.216 -25.1423 41.8381
lradius 115.875
lwrist 47.4416
lhand -4.71246 38.1067
lfingers 7.12502
lthumb 21.0697 66.9821
rfemur -39.2716 5.98352 12.8032
rtibia 53.6773
rfoot -19.7139 -8.42249
rtoes -18.2988
lfemur -31.4433 16.7865 -26.6482
ltibia 52.9321
lfoot -29.4359 16.1797
ltoes -12.8266
2577
root 0.698391 16.8724 -1.19734 4.9063 -24.2225 4.41626
lowerback 16.4674 1.91683 1.33118
upperback 12.336 2.43079 0.675635
thorax 3.99558 1.19479 -0.343939
lowerneck 2.02465 0.961824 -3.77029
upperneck -12.046 0.144962 -7.89118
head -4.35558 0.593389 -2.01357
rclavicle 2.3059e-014 -2.46493e-014
rhumerus 23.808 30.8621 -91.952
rradius 114.284
rwrist -10.4624
rhand -49.7964 43.4396
rfingers 7.12502
rthumb -22.3937 14.7177
lclavicle 2.3059e-014 -2.46493e-014
lhumerus 53.2618 -25.72 41.9422
lradius 115.544
lwrist 47.279
lhand -5.13926 38.7177
lfingers 7.12502
lthumb 20.6596 67.6381
rfemur -39.1347 6.08861 12.7047
rtibia 53.5509
rfoot -19.8073 -7.95666
rtoes -16.173
lfemur -31.1994 16.8878 -26.7092
ltibia 52.7936
lfoot -29.6227 16.0887
ltoes -12.309
